<?xml version="1.0" encoding="utf-8" ?>
<svg xmlns="http://www.w3.org/2000/svg" xmlns:xlink="http://www.w3.org/1999/xlink" width="173" height="147">
	<path fill="#F4D35E" transform="scale(0.338867 0.287109)" d="M255.683 416.618C263.144 416.929 270.447 421.88 271.201 429.849C271.721 435.339 270.959 441.017 270.953 446.536L270.937 483.051C270.723 488.857 267.324 493.318 262.066 495.854L261.75 496.003C259.975 496.854 258.256 497.231 256.313 497.433C254.315 497.375 252.535 496.988 250.698 496.203L249.438 495.661C245.394 493.772 243.672 490.222 242.02 486.375L241.808 485.944C240.341 482.523 241.088 476.985 241.084 473.364L241.067 455.877C241.058 442.223 236.336 418.111 255.683 416.618Z"/>
	<path fill="#F4D35E" transform="scale(0.338867 0.287109)" d="M255.142 11.5755C260.16 11.3285 265.867 15.1124 268.437 19.1778L268.625 19.4832C272.204 25.1133 271.267 31.6687 271.276 38.0084L271.326 63.8677C271.563 76.2213 275.174 88.4131 257.553 92.2251C251.72 93.1517 246.536 89.5561 243.609 84.666L243.413 84.3348C240.73 79.8661 241.051 75.4767 241.073 70.4745L241.071 36.7352C241.067 33.026 240.548 28.3351 241.411 24.7212L241.499 24.375C243.148 17.5965 248.045 12.5727 255.142 11.5755Z"/>
	<path fill="#F4D35E" transform="scale(0.338867 0.287109)" d="M321.697 401.321L323.518 401.39C333.342 402.623 338.294 414.555 342.125 422.291L349.573 437.194C353.429 444.695 360.072 453.748 358.844 462.668L358.777 463.125C357.807 470.044 349.924 474.711 343.494 474.803C340.938 474.818 338.115 474.169 335.855 472.961L335.5 472.766C332.22 470.983 330.188 467.612 328.404 464.449L311.01 430.951C308.541 426.113 304.441 419.588 306.092 413.914L306.217 413.5C308.288 406.246 314.386 402.404 321.697 401.321Z"/>
	<path fill="#F4D35E" transform="scale(0.338867 0.287109)" d="M343.662 34.0948C357.458 34.9167 361.902 46.9146 357.171 58.6074C353.659 67.2836 348.35 75.2531 343.976 83.5C338.625 93.5859 335.58 108.132 321.587 108.278C311.184 107.089 302.912 96.9902 307.093 86.3882C309.274 80.8591 312.886 75.5346 315.704 70.272L326.462 49.9856C330.734 42.2075 333.757 35.0434 343.662 34.0948Z"/>
	<path fill="#F4D35E" transform="scale(0.338867 0.287109)" d="M167.304 34.333C178.347 33.5904 183.031 44.3266 187.368 52.5005L200.135 75.4767C202.338 79.3142 204.909 83.4854 205.998 87.8094C208.365 97.2153 200.848 105.973 192.127 108.139C190.825 108.265 189.334 108.37 188.05 108.119L187.75 108.056C186.194 107.75 184.779 107.331 183.399 106.524L183 106.286C175.612 101.977 169.13 85.5127 165.278 78.0193L156.526 60.7968C150.875 48.2534 151.667 36.4632 167.304 34.333Z"/>
	<path fill="#F4D35E" transform="scale(0.338867 0.287109)" d="M187.943 401.297C198.123 400.853 209.166 411.445 206.083 421.191C205.197 423.994 203.421 426.708 202.128 429.345L190.168 452.702C185.887 460.831 182.486 472.575 172.257 474.7C160.066 476.029 150.415 467.975 153.737 455.5L154.432 453.231C156.562 447.218 160.143 441.542 163.061 435.872L172.064 418.788C174.997 413.287 177.806 405.417 183.861 402.598L184.224 402.434C185.452 401.871 186.632 401.58 187.943 401.297Z"/>
	<path fill="#F4D35E" transform="scale(0.338867 0.287109)" d="M457.552 151.055C473.806 148.969 483.006 170.701 469.747 179.642C465.962 182.195 461.577 184.04 457.485 186.052L431.25 199.495C427.748 201.443 424.527 203.407 420.679 204.627C406.198 206.267 397.511 189.695 403.792 179.875C406.786 175.195 414.394 172.484 419.143 170.132L443.703 157.521C448.163 155.028 452.464 152.025 457.552 151.055Z"/>
	<path fill="#F4D35E" transform="scale(0.338867 0.287109)" d="M50.9636 151.075C57.5083 150.558 63.1195 154.719 68.6328 157.632L85.296 166.33C91.3371 169.372 102.834 173.123 106.891 178.661L107.08 178.925C108.512 180.863 109.41 183.216 109.733 185.606L109.847 186.433C111.1 195.662 104.859 203.811 95.7106 205.074C86.2365 204.945 75.3227 197.173 67.3165 192.774L47.4106 182.129C42.5959 179.476 38.3666 176.539 36.8115 170.99L36.3175 168.924C35.2234 159.922 42.1565 152.175 50.9636 151.075Z"/>
	<path fill="#F4D35E" transform="scale(0.338867 0.287109)" d="M94.5312 78.5812C105.143 77.976 111.408 87.2466 118.119 94.0289L134.212 110.29C141.692 117.751 151.363 123.218 144.191 136.199C141.718 140.676 137.783 143.222 132.936 144.586L132.672 144.625C122.668 145.986 116.941 137.307 110.695 131.069L93.8081 113.898C88.9256 108.887 81.675 103.15 80.7951 95.6988C79.7374 86.7412 85.6484 79.6228 94.5312 78.5812Z"/>
	<path fill="#F4D35E" transform="scale(0.338867 0.287109)" d="M415.658 304.068C416.965 303.889 418.609 303.905 419.897 304.158L420.25 304.231C424.625 305.039 428.324 307.605 432.032 309.93L456.75 322.737C466.856 327.725 478.728 332.614 475.098 346.953L475.02 347.25C473.313 353.968 468.096 356.602 461.557 357.722C459.675 357.842 457.743 357.89 455.915 357.383L455.5 357.265C449.81 355.715 444.563 351.932 439.303 349.274L419.478 339.384C412.426 335.756 403.064 332.089 401.79 323.214C400.493 314.178 406.436 305.382 415.658 304.068Z"/>
	<path fill="#F4D35E" transform="scale(0.338867 0.287109)" d="M379.125 364.567C380.819 364.37 382.716 364.334 384.357 364.829L384.75 364.955C391.683 367.107 397.232 374.435 402.106 379.453L420.772 397.96C422.864 399.883 425.126 401.768 426.957 403.945L427.221 404.265C428.673 406.004 429.927 407.924 430.501 410.143L430.752 411.156C432.721 420.491 427.591 429.189 418.014 430.941C409.192 432.206 404.739 426.406 399.051 420.869L377.128 398.378C373.131 394.142 366.611 389.25 365.52 383.16C363.952 374.4 370.361 365.729 379.125 364.567Z"/>
	<path fill="#F4D35E" transform="scale(0.338867 0.287109)" d="M413.585 78.0738C419.343 77.778 425.266 79.8825 428.488 84.9555L428.691 85.2855C429.178 86.0567 429.596 86.7811 429.932 87.6317L430.069 87.9838C435.083 100.527 423.926 108.375 416.144 116.009L399.344 132.839C394.21 137.923 391.523 142.721 384.073 144.533C371.286 146.884 360.483 130.623 368.289 120.181C370.373 117.393 373.083 114.947 375.528 112.479L399.739 87.6572C403.923 83.3048 407.255 78.9707 413.585 78.0738Z"/>
	<path fill="#F4D35E" transform="scale(0.338867 0.287109)" d="M92.1447 304.053C105.338 302.438 115.422 316.871 108.292 328.676C105.412 333.443 99.0393 335.775 94.3832 338.314L75.498 348.372C69.0077 351.712 62.6846 356.272 55.5011 357.963C40.6426 360.467 26.8728 339.738 45.044 328.15C54.2744 322.263 64.6724 317.781 74.4299 312.825C80.1712 309.908 85.7289 305.318 92.1447 304.053Z"/>
	<path fill="#F4D35E" transform="scale(0.338867 0.287109)" d="M128.412 365.058C135.006 364.091 142.443 368.13 145.473 373.97L145.625 374.272C150.832 384.43 141.756 392.162 135.215 398.929L109.291 424.828C106.172 427.957 104.108 430.286 99.6277 431.197C85.7344 432.578 75.3632 417.61 83.0074 406.392C85.2248 403.138 88.5152 400.366 91.3679 397.663L112.613 376.417C117.34 371.588 121.432 366.367 128.412 365.058Z"/>
	<path fill="#F4D35E" transform="scale(0.338867 0.287109)" d="M27.1287 238.821C29.7471 238.703 32.4862 238.911 35.1152 238.93L82.1337 239.095C86.8586 239.344 91.5426 243.136 93.4278 247.355L94.3916 249.858C97.1344 259.693 91.3976 269.963 80.4594 270.374L32.5436 270.349C30.2633 270.348 27.8749 270.469 25.6099 270.214C14.6378 268.979 8.77253 255.477 14.5333 246.359L14.764 246C15.9935 244.036 17.8854 242.293 19.8744 241.123L20.1996 240.935C21.4152 240.213 22.7121 239.754 24.0805 239.409L27.1287 238.821Z"/>
	<path fill="#F4D35E" transform="scale(0.338867 0.287109)" d="M453.672 238.994C456.632 238.588 460.226 238.985 463.244 238.986L485.375 239.074C502.646 239.645 505.847 266.628 487.655 270.257C485.396 270.708 482.574 270.388 480.258 270.383L463.875 270.352L443.625 270.345C439.275 270.344 430.83 271.428 426.969 269.602L426.625 269.434C413.889 263.443 413.755 245.668 426.5 240.005C430.197 238.362 435.578 239.012 439.618 239.005L453.672 238.994Z"/>
	<path fill="#F4D35E" transform="scale(0.338867 0.287109)" d="M253.707 107.668C257.464 107.642 261.295 107.516 265.042 107.76C349.574 113.258 410.448 186.066 401.65 269.404C399.536 289.427 395.277 304.936 385.874 322.812C361.037 370.03 312.33 400.422 259.121 401.48L250.349 401.41C245.75 401.363 241.162 400.623 236.595 400.043C154.083 389.548 99.2313 313.303 111.519 230.596C121.867 160.941 183.6 108.169 253.707 107.668Z"/>
</svg>
