<?xml version="1.0" encoding="utf-8" ?>
<svg xmlns="http://www.w3.org/2000/svg" xmlns:xlink="http://www.w3.org/1999/xlink" width="173" height="147">
	<path fill="#F1D96F" transform="scale(0.337891 0.287109)" d="M238.965 32.0793C246.22 31.0644 254.857 37.5268 256.053 44.8783C256.646 48.5265 256.268 52.7856 256.27 56.5013C256.273 68.6024 256.566 79.4183 241.46 81.4869C226.387 81.7719 223.87 71.8513 223.949 58.812C224.024 46.4853 223.969 34.4019 238.965 32.0793Z"/>
	<path fill="#F1D96F" transform="scale(0.337891 0.287109)" d="M34.7122 239.359L65.036 239.329C68.3156 239.581 72.2518 241.858 74.3283 244.354L74.625 244.716C75.2838 245.511 75.8758 246.27 76.3859 247.172L76.5631 247.49C83.1613 259.207 74.2145 271.215 61.5963 271.572L42.0624 271.532C38.3637 271.564 33.8073 272.101 30.2017 271.359C13.7875 267.98 11.6538 240.808 34.7122 239.359Z"/>
	<path fill="#F1D96F" transform="scale(0.337891 0.287109)" d="M103.966 86.7867C106.714 86.5096 109.127 86.7527 111.68 87.8679L114.154 89.1134C117.367 91.1205 119.983 93.839 122.643 96.4998L132.113 106.125C139.653 113.837 149.106 122.149 141.502 133.812C138.998 137.652 135.087 139.586 130.714 140.458C119.257 141.882 113.607 133.034 106.527 125.826L98.649 117.999C96.7213 116.086 94.4548 113.99 93.0842 111.625L92.9162 111.33C86.7114 100.828 92.9226 89.8071 103.966 86.7867Z"/>
	<path fill="#F1D96F" transform="scale(0.337891 0.287109)" d="M127.29 368.084C135.159 367.664 141.776 373.642 143.705 381.046L143.82 381.5C144.301 383.358 144.548 385.787 144.1 387.675L144.016 388C142.924 392.529 139.564 395.544 136.304 398.647L120.82 413.827C116.554 418.097 113.203 421.257 107.06 422.479C93.1589 423.742 84.6858 407.032 93.2932 396.744C96.6455 392.737 100.913 389.27 104.636 385.579L113.195 376.834C117.455 372.402 120.866 368.685 127.29 368.084Z"/>
	<path fill="#F1D96F" transform="scale(0.337891 0.287109)" d="M351.274 367.818C362.027 367.276 369.72 379.601 376.235 386.486C383.981 394.672 395.732 403.833 385.959 416.45C383.129 420.104 379.242 421.992 374.701 422.545C363.152 422.578 358.212 413.662 350.934 406.115L343.19 398.313C341.387 396.499 339.453 394.685 338.028 392.549L337.306 391.416C331.372 380.575 340.152 369.967 351.274 367.818Z"/>
	<path fill="#F1D96F" transform="scale(0.337891 0.287109)" d="M239.155 414.061C241.762 413.725 244.527 414.166 246.877 415.338L247.25 415.527C258.784 421.322 256.281 433.555 256.281 444.199L256.27 457.293C256.265 460.366 256.672 463.971 255.662 466.905L255.493 467.375C253.08 474.292 248.037 478.229 240.563 478.634C224.971 478.123 223.578 465.812 223.953 454L224.037 444.577C224.032 430.843 221.367 417.6 239.155 414.061Z"/>
	<path fill="#5BC1FD" transform="scale(0.337891 0.287109)" d="M291.802 127.203L295.411 127.473C297.728 110.209 315.921 96.064 330.744 88.5953C373.558 67.0226 426.684 95.9183 439.142 140.49L440.986 148.575C466.883 149.291 491.307 168.909 494.325 195.25C497.636 224.147 479.368 249.379 451.129 255.027C446.982 255.856 442.578 255.598 438.362 255.596L363.486 255.56L277.809 255.567C265.728 255.55 252.13 255.725 241.768 248.553C231.781 241.641 223.804 229.638 221.779 217.58C218.702 199.267 229.719 178.473 246.875 171.043C251.124 169.203 255.707 168.242 260.254 167.485C260.311 164.068 260.199 160.513 260.664 157.125C263.024 139.931 276.409 131.086 291.802 127.203Z"/>
	<path fill="#F1D96F" transform="scale(0.337891 0.287109)" d="M363.486 255.57C363.566 258.612 362.771 261.963 362.376 265.012C350.42 357.468 249.263 405.762 172.766 354.501C146.019 336.577 127.261 307.679 121.031 276.141C107.003 205.128 156.628 136.109 227.891 125.323C239.241 123.606 251.529 122.999 263.006 123.809L288.729 126.602C289.504 126.656 290.494 126.627 291.225 126.868L291.802 127.144C276.409 131.086 263.024 139.931 260.664 157.125C260.199 160.513 260.311 164.068 260.254 167.485C255.707 168.242 251.124 169.203 246.875 171.043C229.719 178.473 218.702 199.267 221.779 217.58C223.804 229.638 231.781 241.641 241.768 248.553C252.13 255.725 265.728 255.55 277.809 255.567L363.486 255.57Z"/>
</svg>
