<?xml version="1.0" encoding="utf-8" ?>
<svg xmlns="http://www.w3.org/2000/svg" xmlns:xlink="http://www.w3.org/1999/xlink" width="173" height="147">
	<path fill="#F1D96F" transform="scale(0.337891 0.287109)" d="M424.913 254.592C431.459 252.643 441.019 260.134 443.909 265.262L444.116 265.634C449.645 275.425 445.908 285.088 435.07 287.586C429.047 288.441 422.989 286.003 419.078 281.331L418.78 280.971C411.309 272.043 409.735 256.238 424.913 254.592Z"/>
	<path fill="#F1D96F" transform="scale(0.337891 0.287109)" d="M431.6 65.5795C454.473 64.3986 449.401 96.2626 428.102 100.016C402.927 100.39 411.995 68.0261 431.6 65.5795Z"/>
	<path fill="#F1D96F" transform="scale(0.337891 0.287109)" d="M237.597 65.349C261.515 66.0594 265.937 102.216 243.946 99.9724C241.773 99.417 239.723 99.0305 237.695 97.9912L236.789 97.5223C231.238 94.5942 225.612 88.2297 223.78 82.1519L223.669 81.773C220.764 72.1198 228.957 66.1081 237.597 65.349Z"/>
	<path fill="#F1D96F" transform="scale(0.337891 0.287109)" d="M325.5 16.314C331.99 16.0457 338.658 19.2703 341.46 25.3955L341.584 25.674C345.606 34.5244 344.828 52.2462 334.867 56.6876L334.547 56.8255C333.364 57.3486 332.201 57.6367 330.946 57.9263C326.95 58.7705 323.035 57.6372 319.633 55.4902L318.949 55.0561C310.924 49.8932 311.407 37.0399 313.045 28.8832C314.494 21.6687 318.044 17.7445 325.5 16.314Z"/>
	<path fill="#F1D96F" transform="scale(0.337891 0.287109)" d="M461.186 160.836L474.16 160.825C476.648 160.845 479.593 160.616 481.964 161.424C499.716 167.472 498.2 190.747 480.214 192.72L467.889 192.726C463.637 192.723 458.003 193.439 454.261 191.185C446.145 186.296 443.719 176.098 448.555 168.039L449.303 166.875C452.461 162.733 456.169 161.43 461.186 160.836Z"/>
	<defs>
		<linearGradient id="gradient_0" gradientUnits="userSpaceOnUse" x1="330.70581" y1="491.03308" x2="371.86877" y2="417.22964">
			<stop offset="0" stop-color="#3C98FF"/>
			<stop offset="1" stop-color="#5BCAFF"/>
		</linearGradient>
	</defs>
	<path fill="url(#gradient_0)" transform="scale(0.337891 0.287109)" d="M362.674 415.344C368.728 414.848 375.549 417.218 378.954 422.451L379.125 422.719C386.322 433.767 378.467 444.217 372.671 453.535L362.689 469.962C356.601 480.27 353.845 491.508 340.31 493.677C326.325 495.212 317.53 480.361 322.511 468.282C324.947 462.374 329.062 456.951 332.365 451.473L344.562 431.542C349.337 423.897 352.677 416.524 362.674 415.344Z"/>
	<path fill="#5BC1FD" transform="scale(0.337891 0.287109)" d="M157.788 415.585C162.052 415.133 166.17 415.836 169.707 418.341C183.247 427.933 175.753 442.07 169.276 453.087L157.605 472.545C151.653 482.592 149.526 491.886 136.311 493.688C124.104 494.295 113.91 482.248 117.44 470.163C119.107 464.458 123.086 459.22 126.251 454.25L141.949 429.132C144.468 424.976 146.882 419.992 151.338 417.584L151.665 417.413C153.684 416.329 155.515 415.813 157.788 415.585Z"/>
	<path fill="#5BC1FD" transform="scale(0.337891 0.287109)" d="M268.291 399.075C277.723 397.805 285.248 403.568 287.091 412.75L287.328 414C288.747 423.238 283.208 430.166 278.702 437.576L255.444 475.52C250.597 484.014 247.436 491.978 236.624 493.494C234.539 493.515 232.538 493.541 230.477 493.173C221.474 491.564 214.96 481.388 216.91 472.496L216.997 472.125C217.589 469.539 218.714 467.313 219.999 465L250.332 416.169C254.889 408.593 258.513 400.511 268.291 399.075Z"/>
	<path fill="#F1D96F" transform="scale(0.337891 0.287109)" d="M243.749 154.953C243.425 153.747 244.127 151.962 244.384 150.741C251.573 116.596 276.282 90.7371 310.358 81.6552C344.999 72.4225 385.569 86.0764 407.629 114.136C431.381 144.35 434.951 191.384 415.576 224.506C406.234 240.476 393.322 249.374 378.119 258.704C357.465 240.743 344.761 241.097 320.165 241.039C319.709 239.973 319.568 238.688 319.3 237.555L317.655 231.603C306.659 195.259 279.157 167.543 243.749 154.953Z"/>
	<defs>
		<linearGradient id="gradient_1" gradientUnits="userSpaceOnUse" x1="208.48329" y1="374.93237" x2="208.12192" y2="149.49139">
			<stop offset="0" stop-color="#47B5FB"/>
			<stop offset="1" stop-color="#90DEFD"/>
		</linearGradient>
	</defs>
	<path fill="url(#gradient_1)" transform="scale(0.337891 0.287109)" d="M138.037 173.179C165.132 150.653 210.741 143.439 243.309 154.979L243.749 154.953C279.157 167.543 306.659 195.259 317.655 231.603L319.3 237.555C319.568 238.688 319.709 239.973 320.165 241.039C344.761 241.097 357.465 240.743 378.119 258.704C409.495 289.6 403.58 345.17 364.763 366.462C350.036 374.541 339.222 374.764 323.088 374.779L94.0575 374.765C88.8406 374.777 83.4704 375.055 78.2784 374.514C50.054 371.572 25.8863 350.762 20.0052 322.605C12.8735 288.461 31.4112 253.127 65.6109 242.875C73.6048 240.479 81.7874 239.86 90.0791 240.028C96.633 240.161 94.3138 240.905 96.4843 233.75C103.609 210.262 118.256 187.807 138.037 173.179Z"/>
</svg>
