<?xml version="1.0" encoding="utf-8" ?>
<svg xmlns="http://www.w3.org/2000/svg" xmlns:xlink="http://www.w3.org/1999/xlink" width="173" height="147">
	<path fill="#F1D96F" transform="scale(0.337891 0.287109)" d="M82.8366 414.062C88.2282 413.722 94.1284 417.507 95.3328 422.988C96.5085 428.338 86.4594 445.973 84.0589 451.373L81.2738 457.882C78.6488 464.81 76.2747 473.143 68.0405 474.932C60.5325 475.482 53.0229 468.398 55.6345 460.684L55.7427 460.375C57.0751 456.479 59.5582 452.786 61.2455 449L68.9597 431.193C72.1083 423.818 73.837 415.624 82.8366 414.062Z"/>
	<path fill="#F1D96F" transform="scale(0.337891 0.287109)" d="M283.258 413.793C291.488 413.26 297.261 422.082 295.086 429.6C293.093 436.49 288.662 443.015 285.621 449.512C281.747 457.787 278.676 472.358 268.423 474.786C265.995 474.809 264.059 474.695 261.895 473.471C250.669 467.12 256.791 457.986 260.388 450.162L268.4 432.925C271.739 425.731 274.572 415.779 283.258 413.793Z"/>
	<path fill="#F1D96F" transform="scale(0.337891 0.287109)" d="M189.051 316.809C196.828 316.421 202.339 324.599 200.025 331.749C197.538 339.433 193.153 346.735 189.88 354.129L178.931 378.516C175.374 386.503 174.247 394.167 164.512 396.315C162.956 396.308 161.565 395.973 160.117 395.409L159.75 395.263C147.716 390.594 154.255 378.763 158.01 370.732L176.201 331.447C179.597 324.26 180.499 318.48 189.051 316.809Z"/>
	<path fill="#F1D96F" transform="scale(0.337891 0.287109)" d="M254.317 317.076C261.409 315.653 267.772 324.243 265.64 330.818C264.13 335.473 261.914 340.032 259.954 344.518L243.037 381.898C240.047 388.665 238.491 394.485 230.486 396.309C225.256 396.296 218.975 392.211 218.055 386.801C217.179 381.651 221.309 375.162 223.452 370.706L242.217 330C245.056 323.886 246.818 318.32 254.317 317.076Z"/>
	<path fill="#F1D96F" transform="scale(0.337891 0.287109)" d="M319.974 317.322C327.51 316.433 334.403 324.269 331.804 331.659C330.798 334.521 329.375 337.261 328.125 340.023L309.173 382.343C306.154 388.864 304.901 394.832 296.743 395.885C291.61 396.335 285.601 392.236 284.419 387.181C283.402 382.829 285.641 379.214 287.581 375.557L304.763 337.591C308.16 330.212 310.951 319.381 319.974 317.322Z"/>
	<path fill="#F1D96F" transform="scale(0.337891 0.287109)" d="M124.7 316.335C130.586 315.854 135.066 320.481 135.49 326.36C135.906 332.134 126.753 348.728 124.294 354.25L110.366 385.665C107.721 391.56 104.882 396.024 97.7509 396.341C90.0016 395.522 84.7612 388.945 87.6787 381.555C89.0298 378.133 90.8375 374.878 92.4494 371.573L113.724 325.349C116.438 319.539 117.769 317.189 124.7 316.335Z"/>
	<path fill="#F1D96F" transform="scale(0.337891 0.287109)" d="M217.761 413.809C227.049 414.058 230.24 422.215 227.394 430.163C225.643 435.053 223.318 439.761 221.201 444.503L202.494 486.805C200.358 491.042 197.913 493.432 192.896 493.638L190.795 493.347C187.778 492.659 184.747 491.02 183.062 488.351L182.875 488.048C178.068 480.515 186.165 468.128 189.365 460.972L203.102 430.776C206.92 422.702 207.708 415.515 217.761 413.809Z"/>
	<path fill="#F1D96F" transform="scale(0.337891 0.287109)" d="M148.929 413.814C154.047 413.569 160.793 417.455 161.514 422.963C162.356 429.404 147.895 457.452 144.77 464.528L139.964 476.026C136.935 483.74 135.326 492.722 125.79 493.67C119.386 493.086 110.987 487.544 113.255 480.125C114.321 476.64 116.308 473.174 117.882 469.879L135.334 430.615C138.639 423.49 140.584 416.291 148.929 413.814Z"/>
	<path fill="#F1D96F" transform="scale(0.337891 0.287109)" d="M262.064 97.0931C275.209 64.2938 299.786 38.9289 332.43 24.867C341.314 21.0401 364.533 13.007 373.252 16.5445C385.923 21.6854 382.276 31.9046 381.134 41.6896C379.843 52.7595 381.014 63.4892 383.932 74.25C394.541 113.376 425.052 140.108 465.137 143.374L474.294 143.727C481.299 143.745 486.136 143.277 491.125 149.136L491.365 149.415C497.402 156.484 493.286 165.913 490.579 173.544C476.585 213 449.504 233.22 411.529 246.454L406.75 248.005C405.089 248.549 403.18 249.434 401.402 249.248L400.85 249.16C402.833 243.808 404.678 238.628 405.12 232.878C407.291 204.576 388.547 185.077 361.406 180.965C358.057 180.458 354.618 180.384 351.236 180.137L345.499 165.125C326.903 127.153 299.996 110.197 262.064 97.0931Z"/>
	<path fill="#5BC1FD" transform="scale(0.337891 0.287109)" d="M400.85 249.16L396.473 256.625C389.42 267.859 377.565 274.481 364.91 277.391C359.088 278.729 352.625 278.244 346.687 278.246L84.6276 278.245C78.46 278.246 72.0625 278.617 65.9285 278.1C13.7696 273.702 1.31319 205.108 43.9319 181.875C46.431 180.513 48.0654 180.518 48.875 177.685L50.6131 170.93C59.8497 138.451 101.82 123.05 129.677 140.698C132.007 137.106 134.782 134.17 137.717 131.073C162.609 104.808 191.992 93.1063 227.624 93.0252C239.729 92.9976 250.21 94.0372 262.064 97.0931C299.996 110.197 326.903 127.153 345.499 165.125L351.236 180.137C354.618 180.384 358.057 180.458 361.406 180.965C388.547 185.077 407.291 204.576 405.12 232.878C404.678 238.628 402.833 243.808 400.85 249.16Z"/>
</svg>
