<?xml version="1.0" encoding="utf-8" ?>
<svg xmlns="http://www.w3.org/2000/svg" xmlns:xlink="http://www.w3.org/1999/xlink" width="173" height="147">
	<path fill="#F4D35E" transform="scale(0.337891 0.287109)" d="M202.327 14.5893C209.083 14.5438 215.231 19.938 217.215 26.1998L217.346 26.625C220.306 36.0423 214.601 41.5769 209.562 48.8026L203.48 58.2721C185.709 87.4552 175.268 118.816 172.774 153.193C171.074 176.618 174.612 202.859 181.355 225.133C207.321 310.898 283.092 371.102 371.82 380.546L383.947 381.703C392.069 382.123 400.597 381.927 408.72 381.607L429.878 379.836L455.714 375.875C457.715 375.638 460.225 375.406 462.193 375.902L462.5 375.984C473.55 378.813 480.708 392.608 475.08 402.989C473.281 406.308 470.656 409.064 468.11 411.817L455.322 424.434C430.764 446.643 403.65 464.764 372.572 476.765L352.906 483.279C339.312 486.946 325.579 490.302 311.573 491.988L302.269 492.773C300.512 492.925 298.78 493.248 297.017 493.322L283.433 493.406C265.403 493.401 251.959 492.094 233.944 488.454C148.513 471.192 75.3309 412.488 47.8856 328.164C31.4939 277.801 31.2684 221.563 48.711 171.435C70.3926 109.125 116.806 56.0299 175.447 25.9241C182.992 22.0506 193.842 15.3433 202.327 14.5893Z"/>
	<defs>
		<linearGradient id="gradient_0" gradientUnits="userSpaceOnUse" x1="196.90337" y1="436.89328" x2="317.08902" y2="125.98535">
			<stop offset="0" stop-color="#FBEDB6"/>
			<stop offset="1" stop-color="white"/>
		</linearGradient>
	</defs>
	<path fill="url(#gradient_0)" transform="scale(0.337891 0.287109)" d="M74.8843 206.549C82.757 156.421 113.018 108.867 151.834 77.0844C155.983 73.6867 160.268 69.9655 164.722 66.9843L164.974 66.844C162.97 70.6815 161.793 74.987 160.495 79.1057L156.075 93.2586C146.486 125.947 142.867 160.232 147.074 194.099L151.637 220.049C152.97 223.337 153.509 227.337 154.455 230.787C164.393 267.028 186.625 304.804 213.134 331.914C259.878 379.718 327.048 407.808 393.951 407.999C407.273 408.037 412.541 408.266 425.29 405.488L400.626 423.112C374.797 439.329 338.751 450.42 308.885 453.561L300.209 454.492C169.019 462.728 62.1212 359.413 72.0597 229.25C72.6326 221.747 73.1695 213.876 74.8843 206.549Z"/>
</svg>
