<?xml version="1.0" encoding="utf-8" ?>
<svg xmlns="http://www.w3.org/2000/svg" xmlns:xlink="http://www.w3.org/1999/xlink" width="173" height="147">
	<path fill="#5BC1FD" transform="scale(0.337891 0.287109)" d="M358.321 114.608C392.488 113.117 420.709 138.427 420.572 173.468C420.561 176.075 420.628 178.763 420.082 181.323L420.025 181.581C439.091 183.99 454.014 200.351 454.344 219.548L454.38 233.324C454.338 254.404 447.469 272.667 424.166 278.004C416.62 279.732 408.539 279.5 400.844 279.506L309.875 279.503L274.081 279.505C251.743 279.519 230.8 280.227 219.74 255.431C218.794 253.309 218.262 251.171 217.502 249L217.252 248.375C215.819 242.891 215.916 220.776 216.929 214.806C219.772 198.056 231.566 185.427 248.305 181.578C250.432 147.779 286.454 126.408 318.004 138.315C326.238 124.072 342.194 115.722 358.321 114.608Z"/>
	<defs>
		<linearGradient id="gradient_0" gradientUnits="userSpaceOnUse" x1="170.03894" y1="467.07529" x2="307.17749" y2="156.75175">
			<stop offset="0" stop-color="#F9CA46"/>
			<stop offset="1" stop-color="#EAECA0"/>
		</linearGradient>
	</defs>
	<path fill="url(#gradient_0)" transform="scale(0.337891 0.287109)" d="M37.1715 294C35.9378 290.109 34.9994 278.599 34.78 274.574L34.68 264.77C34.688 258.754 34.4338 252.625 34.7854 246.623C37.6634 197.492 58.3835 147.231 92.0853 111.057C98.8111 103.837 106.021 97.295 113.322 90.6831L119.48 85.1671C121.823 83.0519 124.162 80.6818 127.25 79.7202C136.66 76.79 144.802 87.7311 138.353 98.2969C134.443 104.701 130.226 110.803 126.795 117.5C112.52 145.358 105.464 176.485 107.417 207.781L108.205 214.784C112.648 255.5 132.71 299.425 160.424 330.004C194.157 367.224 242.687 390.816 292.5 395.771L303.685 396.8C351.535 399.424 404.66 383.613 441.811 352.729C444.312 350.651 446.812 347.783 449.738 346.353C455.934 343.327 463.645 347.989 465.162 354.432C468.381 368.107 431.557 410.1 422.771 418.872C421.543 420.097 419.873 422.232 418.411 423.051C371.89 467.678 306.996 489.759 242.913 485.293L229.047 483.639C131.16 470.438 51.958 391.893 37.1715 294Z"/>
</svg>
