<?xml version="1.0" encoding="utf-8" ?>
<svg xmlns="http://www.w3.org/2000/svg" xmlns:xlink="http://www.w3.org/1999/xlink" width="173" height="147">
	<path fill="#8EBFFC" transform="scale(0.337891 0.287109)" d="M254.325 338.805C262.75 338.085 269.9 345.096 268.035 353.477C266.379 360.916 262.653 368.282 259.846 375.373C256.41 384.053 254.585 395.533 244.267 398.242C235.25 399.492 228.038 392.062 229.647 382.843L229.711 382.5C230.688 376.681 234.335 371.317 236.571 365.919L241.66 352.542C244.245 345.904 246.582 340.39 254.325 338.805Z"/>
	<path fill="#8EBFFC" transform="scale(0.337891 0.287109)" d="M190.302 339.1C197.982 339.005 204.722 344.345 203.138 352.713C202.069 358.361 199.704 363.859 197.749 369.25C194.248 378.905 190.624 395.922 178.744 398.469L178.347 398.521C168.451 399.766 163.125 389.852 165.677 381.047C167.334 375.33 170.221 369.806 172.347 364.234L175.779 354.833C178.438 346.936 180.753 339.796 190.302 339.1Z"/>
	<path fill="#779FFD" transform="scale(0.337891 0.287109)" d="M382.689 338.794C389.511 338.153 395.078 341.474 396.954 348.422C398.695 354.868 389.839 371.158 387.376 377.282C383.98 385.726 382.6 396.122 372.218 398.547C369.388 398.951 366.972 398.544 364.489 397.059C355.138 391.463 357.066 383.434 360.503 375.484L369.426 353.843C372.231 346.791 374.453 340.692 382.689 338.794Z"/>
	<path fill="#8EBFFC" transform="scale(0.337891 0.287109)" d="M319.686 338.595C328.445 337.784 334.071 346.256 332.163 354.179C330.731 360.129 327.737 366.076 325.434 371.745C321.398 381.683 318.822 395.952 306.788 398.847C301.771 399.059 296.844 396.223 294.593 391.668L294.421 391.31C290.791 383.869 297.074 373.514 299.837 366.688L305.199 353.362C308.199 346.104 310.928 339.565 319.686 338.595Z"/>
	<path fill="#779FFD" transform="scale(0.337891 0.287109)" d="M448.942 338.817C451.748 338.47 454.362 338.758 456.809 340.264C466.235 346.064 462.523 355.55 458.804 363.693L453.468 375.354C449.394 384.38 447.191 396.39 436.056 398.729C433.52 398.788 431.449 398.798 429.189 397.478C416.293 389.949 424.857 377.291 428.891 368.005L434.533 354.868C437.77 347.232 439.851 340.676 448.942 338.817Z"/>
	<path fill="#9FD8FA" transform="scale(0.337891 0.287109)" d="M125.205 338.827C131.056 338.331 137.15 342.007 138.483 347.907L138.737 349.222C139.582 356.948 132.249 369.308 129.175 376.2L124.779 386.094C121.829 392.793 119.675 397.795 111.582 398.673C96.3977 397.539 96.409 386.335 101.822 374.536L111.007 353.25C113.938 345.915 116.44 340.065 125.205 338.827Z"/>
	<path fill="#779FFD" transform="scale(0.337891 0.287109)" d="M364.796 431.079C369.881 430.608 375.095 432.468 377.433 437.361L377.581 437.681C380.176 443.141 377.887 447.821 375.916 453.036L369.305 468.943C365.437 478.245 363.75 489.012 352.526 491.517C344.208 492.526 336.454 484.557 338.409 476.218L338.496 475.875C339.837 470.354 343.048 465.018 345.275 459.788L350.103 447.851C353.026 440.389 355.682 432.315 364.796 431.079Z"/>
	<path fill="#8EBFFC" transform="scale(0.337891 0.287109)" d="M158.632 430.59C182.148 431.716 165.8 460.08 161.251 471.188C157.735 479.772 156.088 490.582 145.047 491.848C143.637 491.797 142.418 491.643 141.084 491.167L140.75 491.046C124.297 485.174 134.951 468.55 138.823 458.279C142.784 447.773 144.778 431.826 158.632 430.59Z"/>
	<path fill="#8EBFFC" transform="scale(0.337891 0.287109)" d="M228.212 430.585C233.957 430.624 238.4 433.676 240.451 439.231L240.547 439.5C242.368 444.434 238.679 451.156 236.79 455.602L227.238 478.314C224.141 485.974 221.708 491.072 212.611 491.907C211.578 491.841 210.657 491.771 209.683 491.383L209.375 491.255C203.484 488.908 198.361 481.976 200.427 475.521C201.366 472.586 202.737 469.743 203.957 466.916L214.637 442.388C217.584 435.707 220.248 431.323 228.212 430.585Z"/>
	<path fill="#8EBFFC" transform="scale(0.337891 0.287109)" d="M297.648 430.836C299.064 430.622 301.053 430.607 302.387 431.12L302.75 431.27C315.336 436.379 309.753 448.658 305.9 457.741L294.599 483.494C292.001 488.887 289.133 491.33 282.836 491.955C280.07 491.824 277.783 491.427 275.462 489.81C265.142 482.623 270.753 473.948 274.333 465.564L282.816 446.347C286.57 438.204 287.818 432.334 297.648 430.836Z"/>
	<path fill="#779FFD" transform="scale(0.337891 0.287109)" d="M434.003 430.574C440.121 430.029 446.186 434.479 447.625 440.436C448.871 445.594 445.704 451.033 443.625 455.531L438.125 467.464C433.935 476.569 431.321 488.991 420.297 491.737C419.334 491.758 418.01 491.933 417.09 491.668L416.625 491.518C402.701 487.168 406.022 475.775 410.47 465.987L419.888 444.706C422.849 437.833 425.827 431.992 434.003 430.574Z"/>
	<path fill="#9FD8FA" transform="scale(0.337891 0.287109)" d="M89.7035 430.318C91.3486 430.185 93.316 430.105 94.8994 430.597L96.625 431.241C99.6511 432.706 102.343 435.813 103.457 438.971L103.9 440.32C105.278 446.206 98.3028 459.022 96.0641 464.464L90.8794 477.061C87.7952 484.591 86.0684 489.922 77.274 491.719C74.1696 492.003 71.4053 491.747 68.7437 489.956C57.9185 482.674 63.3414 474.569 66.9396 466.19L75.3389 446.146C78.5368 438.72 80.7083 431.858 89.7035 430.318Z"/>
	<defs>
		<linearGradient id="gradient_0" gradientUnits="userSpaceOnUse" x1="496.08948" y1="156.56651" x2="16.631821" y2="153.4019">
			<stop offset="0" stop-color="#6F89F8"/>
			<stop offset="1" stop-color="#BCF5F7"/>
		</linearGradient>
	</defs>
	<path fill="url(#gradient_0)" transform="scale(0.337891 0.287109)" d="M374.686 292.512L84.6796 292.479C79.3464 292.392 73.615 291.213 68.5 289.726C29.3556 278.351 7.00615 234.84 19.2502 196.125C25.0971 177.637 37.8545 161.04 55.224 152.204C61.2514 149.137 65.2693 148.408 68.1841 141.994L71.3772 134.759C84.2226 106.71 113.279 92.0235 143.555 95.3046C147.08 95.6867 150.46 96.7375 153.93 97.2836C154.999 97.4518 154.988 96.4512 155.412 95.6251L163.371 80.9766C204.84 13.5777 297.494 -4.73797 358.985 45.2615C376.707 59.6718 395.251 82.9884 402.141 105.322C403.004 107.23 403.702 109.359 404.256 111.378C405.651 116.453 404.387 115.372 409.77 115.461C458.923 116.276 496.018 154.256 495.993 202.764C495.971 245.952 469.022 283.172 425.329 291.132C416.72 292.7 408.315 292.517 399.611 292.518L374.686 292.512Z"/>
</svg>
